<svg class="lds-gear" width="30px"  height="30px"  xmlns="http://www.w3.org/2000/svg" xmlns:xlink="http://www.w3.org/1999/xlink" viewBox="0 0 100 100" preserveAspectRatio="xMidYMid" style="background: none;"><g transform="translate(50 50)">
<g transform="rotate(194.63)">
<animateTransform attributeName="transform" type="rotate" values="0;360" keyTimes="0;1" dur="4.5s" repeatCount="indefinite"></animateTransform><path d="M29.393876913398135 -6 L39.39387691339813 -6 L39.39387691339813 6 L29.393876913398135 6 A30 30 0 0 1 27.306857467259356 12.42318539114594 L27.306857467259356 12.42318539114594 L35.39702741100883 18.301037914070672 L28.343604383499155 28.009241846570042 L20.25343443974968 22.13138932364531 A30 30 0 0 1 14.789546594576374 26.101136211415287 L14.789546594576374 26.101136211415287 L17.879716538325848 35.611701374366824 L6.467038342784001 39.3199053068662 L3.3768683990345263 29.80934014391466 A30 30 0 0 1 -3.3768683990345227 29.80934014391466 L-3.3768683990345227 29.80934014391466 L-6.467038342783996 39.3199053068662 L-17.879716538325845 35.611701374366824 L-14.78954659457637 26.10113621141529 A30 30 0 0 1 -20.253434439749675 22.131389323645312 L-20.253434439749675 22.131389323645312 L-28.343604383499148 28.009241846570042 L-35.39702741100883 18.301037914070672 L-27.306857467259356 12.42318539114594 A30 30 0 0 1 -29.393876913398135 6.000000000000006 L-29.393876913398135 6.000000000000006 L-39.39387691339813 6.000000000000008 L-39.39387691339813 -5.9999999999999964 L-29.393876913398135 -5.999999999999998 A30 30 0 0 1 -27.30685746725936 -12.423185391145934 L-27.30685746725936 -12.423185391145934 L-35.397027411008835 -18.301037914070662 L-28.343604383499155 -28.00924184657004 L-20.25343443974968 -22.13138932364531 A30 30 0 0 1 -14.789546594576377 -26.101136211415287 L-14.789546594576377 -26.101136211415287 L-17.87971653832585 -35.611701374366824 L-6.467038342784006 -39.3199053068662 L-3.3768683990345303 -29.80934014391466 A30 30 0 0 1 3.376868399034519 -29.80934014391466 L3.376868399034519 -29.80934014391466 L6.467038342783992 -39.3199053068662 L17.879716538325837 -35.61170137436683 L14.789546594576366 -26.10113621141529 A30 30 0 0 1 20.25343443974967 -22.131389323645315 L20.25343443974967 -22.131389323645315 L28.343604383499144 -28.00924184657005 L35.39702741100882 -18.301037914070676 L27.306857467259352 -12.423185391145944 A30 30 0 0 1 29.393876913398135 -6.00000000000001 M0 -15A15 15 0 1 0 0 15 A15 15 0 1 0 0 -15" fill="#002147"></path></g></g></svg>